<svg width="19" height="25" viewBox="0 0 19 25" fill="none" xmlns="http://www.w3.org/2000/svg">
<path d="M9.525 24.521C9.71621 24.5199 9.90144 24.4542 10.0506 24.3345C10.3727 24.0463 18.85 17.2136 18.85 10.1097C18.85 7.63652 17.8675 5.26467 16.1188 3.5159C14.37 1.76712 11.9981 0.784668 9.525 0.784668C7.05185 0.784668 4.68 1.76712 2.93123 3.5159C1.18245 5.26467 0.199997 7.63652 0.199997 10.1097C0.199997 17.2136 8.67727 24.0463 8.99941 24.3345C9.14855 24.4542 9.33378 24.5199 9.525 24.521ZM1.89545 10.1097C1.89545 8.08619 2.69928 6.14558 4.13009 4.71476C5.56091 3.28395 7.50152 2.48012 9.525 2.48012C11.5485 2.48012 13.4891 3.28395 14.9199 4.71476C16.3507 6.14558 17.1545 8.08619 17.1545 10.1097C17.1545 15.4503 11.3307 20.9691 9.525 22.5628C7.71934 20.9691 1.89545 15.4503 1.89545 10.1097Z" fill="#7C7C7C"/>
<path d="M13.7636 10.1097C13.7636 9.27141 13.515 8.45191 13.0493 7.75487C12.5836 7.05783 11.9216 6.51455 11.1471 6.19374C10.3725 5.87293 9.5203 5.78899 8.69808 5.95254C7.87587 6.11609 7.12062 6.51978 6.52783 7.11256C5.93505 7.70535 5.53136 8.4606 5.36781 9.28282C5.20426 10.105 5.2882 10.9573 5.60901 11.7318C5.92982 12.5063 6.4731 13.1683 7.17014 13.634C7.86718 14.0998 8.68668 14.3484 9.525 14.3484C10.6492 14.3484 11.7273 13.9018 12.5222 13.1069C13.3171 12.312 13.7636 11.2339 13.7636 10.1097ZM6.98182 10.1097C6.98182 9.60674 7.13097 9.11504 7.41042 8.69682C7.68987 8.27859 8.08706 7.95263 8.55177 7.76014C9.01647 7.56765 9.52782 7.51729 10.0212 7.61542C10.5145 7.71355 10.9676 7.95576 11.3233 8.31143C11.679 8.6671 11.9212 9.12025 12.0193 9.61358C12.1174 10.1069 12.0671 10.6183 11.8746 11.083C11.6821 11.5477 11.3561 11.9449 10.9379 12.2243C10.5197 12.5038 10.028 12.6529 9.525 12.6529C8.85051 12.6529 8.20364 12.385 7.7267 11.908C7.24976 11.4311 6.98182 10.7842 6.98182 10.1097Z" fill="#7C7C7C"/>
</svg>
