<svg width="19" height="25" viewBox="0 0 19 25" fill="none" xmlns="http://www.w3.org/2000/svg">
<path d="M9.5252 24.521C9.71641 24.5199 9.90164 24.4542 10.0508 24.3345C10.3729 24.0463 18.8502 17.2136 18.8502 10.1097C18.8502 7.63652 17.8677 5.26467 16.119 3.5159C14.3702 1.76712 11.9983 0.784668 9.5252 0.784668C7.05205 0.784668 4.6802 1.76712 2.93142 3.5159C1.18265 5.26467 0.200195 7.63652 0.200195 10.1097C0.200195 17.2136 8.67747 24.0463 8.9996 24.3345C9.14875 24.4542 9.33398 24.5199 9.5252 24.521ZM1.89565 10.1097C1.89565 8.08619 2.69947 6.14558 4.13029 4.71476C5.56111 3.28395 7.50171 2.48012 9.5252 2.48012C11.5487 2.48012 13.4893 3.28395 14.9201 4.71476C16.3509 6.14558 17.1547 8.08619 17.1547 10.1097C17.1547 15.4503 11.3309 20.9691 9.5252 22.5628C7.71954 20.9691 1.89565 15.4503 1.89565 10.1097Z" fill="#AFAFAF"/>
<path d="M13.7634 10.1097C13.7634 9.27141 13.5148 8.45191 13.0491 7.75487C12.5833 7.05783 11.9213 6.51455 11.1468 6.19374C10.3723 5.87293 9.52007 5.78899 8.69785 5.95254C7.87564 6.11609 7.12039 6.51978 6.5276 7.11256C5.93482 7.70535 5.53113 8.4606 5.36758 9.28282C5.20403 10.105 5.28797 10.9573 5.60878 11.7318C5.92959 12.5063 6.47287 13.1683 7.16991 13.634C7.86695 14.0998 8.68645 14.3484 9.52477 14.3484C10.6489 14.3484 11.727 13.9018 12.5219 13.1069C13.3168 12.312 13.7634 11.2339 13.7634 10.1097ZM6.98159 10.1097C6.98159 9.60674 7.13074 9.11504 7.41019 8.69682C7.68964 8.27859 8.08683 7.95263 8.55154 7.76014C9.01624 7.56765 9.52759 7.51729 10.0209 7.61542C10.5143 7.71355 10.9674 7.95576 11.3231 8.31143C11.6787 8.6671 11.921 9.12025 12.0191 9.61358C12.1172 10.1069 12.0669 10.6183 11.8744 11.083C11.6819 11.5477 11.3559 11.9449 10.9377 12.2243C10.5195 12.5038 10.0278 12.6529 9.52477 12.6529C8.85028 12.6529 8.20341 12.385 7.72647 11.908C7.24953 11.4311 6.98159 10.7842 6.98159 10.1097Z" fill="#AFAFAF"/>
</svg>
