<svg width="19" height="15" viewBox="0 0 19 15" fill="none" xmlns="http://www.w3.org/2000/svg">
<path d="M18.6106 7.43212C18.6106 7.84197 18.306 8.18069 17.9109 8.2343L17.801 8.24169L1.60975 8.24169C1.16264 8.24169 0.800184 7.87923 0.800184 7.43212C0.800184 7.02227 1.10475 6.68356 1.4999 6.62995L1.60975 6.62256L17.801 6.62256C18.2481 6.62256 18.6106 6.98501 18.6106 7.43212Z" fill="white"/>
<path d="M8.71111 13.3619C9.02795 13.6774 9.02905 14.19 8.71358 14.5068C8.42678 14.7948 7.97709 14.8219 7.65965 14.5875L7.56868 14.5093L1.0382 8.00686C0.749307 7.71921 0.723026 7.26789 0.95937 6.95046L1.03815 6.85955L7.56864 0.356049C7.88545 0.0405499 8.39803 0.0416111 8.71353 0.358419C9.00035 0.646427 9.02555 1.09624 8.78973 1.41268L8.71116 1.50331L2.75705 7.43351L8.71111 13.3619Z" fill="white"/>
</svg>
