<svg width="17" height="17" viewBox="0 0 17 17" fill="none" xmlns="http://www.w3.org/2000/svg">
<path d="M7.63167 0.520165C8.01553 -0.151844 8.98447 -0.151845 9.36833 0.520165L10.1919 1.96192C10.4343 2.38635 10.948 2.57333 11.4066 2.40403L12.9642 1.82894C13.6902 1.56089 14.4324 2.18371 14.2945 2.94524L13.9986 4.57905C13.9115 5.06001 14.1849 5.53346 14.645 5.69851L16.2078 6.25918C16.9363 6.52051 17.1045 7.47473 16.5094 7.96945L15.2325 9.03084C14.8567 9.34329 14.7617 9.88167 15.0081 10.3038L15.8449 11.7379C16.235 12.4064 15.7505 13.2455 14.9766 13.2419L13.3162 13.2342C12.8274 13.232 12.4086 13.5834 12.326 14.0651L12.0452 15.7016C11.9144 16.4644 11.0039 16.7958 10.4133 16.2956L9.14632 15.2224C8.77334 14.9065 8.22666 14.9065 7.85368 15.2224L6.5867 16.2956C5.99615 16.7958 5.08564 16.4644 4.95478 15.7016L4.67401 14.0651C4.59136 13.5834 4.17257 13.232 3.68379 13.2342L2.02342 13.2419C1.24952 13.2455 0.765047 12.4064 1.1551 11.7379L1.99192 10.3038C2.23827 9.88167 2.14334 9.34329 1.76746 9.03084L0.490614 7.96945C-0.10453 7.47473 0.0637243 6.52051 0.79218 6.25918L2.35504 5.69851C2.81511 5.53346 3.08846 5.06001 3.00136 4.57905L2.70548 2.94524C2.56757 2.18372 3.30983 1.56089 4.03584 1.82894L5.59345 2.40403C6.05198 2.57333 6.5657 2.38635 6.80813 1.96192L7.63167 0.520165Z" fill="#D72323"/>
</svg>
