<svg width="306" height="77" viewBox="0 0 306 77" fill="none" xmlns="http://www.w3.org/2000/svg">
<path d="M5.84528 11.0497H15.0664C20.2136 11.0497 23.7041 11.2581 25.5379 11.6749C28.2886 12.3 30.5288 13.6545 32.2584 15.7384C33.9881 17.8015 34.8529 20.3438 34.8529 23.3654C34.8529 25.9078 34.259 28.1271 33.0711 30.0234C31.8833 31.9197 30.1746 33.368 27.9448 34.3683C25.7359 35.3477 22.6934 35.8374 18.8174 35.8374L35.478 57.4056H29.789L13.1284 35.8374H10.4715V57.4056H5.84528V11.0497ZM10.4715 15.5821V31.3363L18.4423 31.3988C21.5265 31.3988 23.8083 31.107 25.2879 30.5235C26.7883 29.9401 27.9448 29.0023 28.7575 27.7103C29.5911 26.4183 30.0078 24.97 30.0078 23.3654C30.0078 21.8234 29.5807 20.4167 28.7263 19.1456C27.8927 17.8744 26.7987 16.9679 25.4442 16.4261C24.0896 15.8635 21.8182 15.5821 18.6299 15.5821H10.4715ZM106.965 15.5509V11.0497H131.409L112.061 52.9044H130.44V57.4056H104.902L124.408 15.5509H106.965ZM139.724 11.0497H166.293V15.6134H144.35V30.1172H166.106V34.6184H144.35V52.8106H166.106V57.4056H139.724V11.0497ZM174.514 11.0497H183.736C188.883 11.0497 192.373 11.2581 194.207 11.6749C196.958 12.3 199.198 13.6545 200.928 15.7384C202.657 17.8015 203.522 20.3438 203.522 23.3654C203.522 25.9078 202.928 28.1271 201.74 30.0234C200.552 31.9197 198.844 33.368 196.614 34.3683C194.405 35.3477 191.363 35.8374 187.487 35.8374L204.147 57.4056H198.458L181.798 35.8374H179.141V57.4056H174.514V11.0497ZM179.141 15.5821V31.3363L187.111 31.3988C190.196 31.3988 192.477 31.107 193.957 30.5235C195.457 29.9401 196.614 29.0023 197.427 27.7103C198.26 26.4183 198.677 24.97 198.677 23.3654C198.677 21.8234 198.25 20.4167 197.395 19.1456C196.562 17.8744 195.468 16.9679 194.113 16.4261C192.759 15.8635 190.487 15.5821 187.299 15.5821H179.141ZM207.648 11.0497H212.681L228.028 46.8716L243.657 11.0497H248.721L228.528 57.4056H227.528L207.648 11.0497ZM277.229 9.86189C284.231 9.86189 290.086 12.2063 294.796 16.895C299.526 21.5837 301.891 27.356 301.891 34.212C301.891 40.9846 299.537 46.7361 294.827 51.4665C290.118 56.1969 284.376 58.5621 277.604 58.5621C270.727 58.5621 264.923 56.2178 260.193 51.529C255.463 46.8195 253.097 41.1201 253.097 34.4308C253.097 29.9922 254.171 25.8661 256.317 22.0526C258.463 18.2391 261.402 15.2591 265.132 13.1127C268.862 10.9455 272.894 9.86189 277.229 9.86189ZM277.416 14.4256C273.999 14.4256 270.748 15.3217 267.664 17.1138C264.6 18.8851 262.214 21.292 260.506 24.3344C258.797 27.356 257.942 30.7215 257.942 34.4308C257.942 39.9323 259.839 44.5793 263.631 48.372C267.445 52.1646 272.04 54.0609 277.416 54.0609C281.001 54.0609 284.324 53.1857 287.388 51.4353C290.451 49.6848 292.837 47.3092 294.546 44.3084C296.255 41.2868 297.109 37.9213 297.109 34.212C297.109 30.5444 296.255 27.2206 294.546 24.2406C292.837 21.2607 290.43 18.8851 287.325 17.1138C284.22 15.3217 280.917 14.4256 277.416 14.4256Z" fill="white"/>
<path d="M46.8993 29.9526V56.5221H51.463V34.5789H65.9668V56.3345H70.468V34.5789H88.6602V56.3345H93.2552V29.9526L46.8993 29.9526Z" fill="white"/>
<path d="M64.6054 11.4503C66.4305 11.4503 67.9101 11.1257 67.9101 10.7252C67.9101 10.3247 66.4305 10 64.6054 10C62.7803 10 61.3008 10.3247 61.3008 10.7252C61.3008 11.1257 62.7803 11.4503 64.6054 11.4503Z" stroke="white" stroke-width="0.751874" stroke-linecap="round" stroke-linejoin="round"/>
<path d="M67.9098 10.7236C67.9098 10.7236 68.7318 18.6176 66.1113 21.8577C65.9296 22.082 65.7001 22.2629 65.4396 22.3872C65.1791 22.5114 64.8941 22.5759 64.6055 22.5759C64.3168 22.5759 64.0318 22.5114 63.7713 22.3872C63.5108 22.2629 63.2813 22.082 63.0996 21.8577C60.4779 18.6188 61.3005 10.7236 61.3005 10.7236" stroke="white" stroke-width="0.751874" stroke-linecap="round" stroke-linejoin="round"/>
<path d="M64.6055 22.5771V31.3073" stroke="white" stroke-width="0.751874" stroke-linecap="round" stroke-linejoin="round"/>
<path d="M69.4998 32.5564C75.5514 32.5564 80.4571 31.9973 80.4571 31.3075C80.4571 30.6178 75.5514 30.0586 69.4998 30.0586C63.4482 30.0586 58.5425 30.6178 58.5425 31.3075C58.5425 31.9973 63.4482 32.5564 69.4998 32.5564Z" stroke="white" stroke-width="0.751874" stroke-linecap="round" stroke-linejoin="round"/>
<path d="M74.2724 11.4503C76.0975 11.4503 77.577 11.1257 77.577 10.7252C77.577 10.3247 76.0975 10 74.2724 10C72.4473 10 70.9678 10.3247 70.9678 10.7252C70.9678 11.1257 72.4473 11.4503 74.2724 11.4503Z" stroke="white" stroke-width="0.751874" stroke-linecap="round" stroke-linejoin="round"/>
<path d="M77.5771 10.7236C77.5771 10.7236 78.3991 18.6176 75.7785 21.8577C75.5969 22.082 75.3674 22.2629 75.1069 22.3872C74.8463 22.5114 74.5614 22.5759 74.2727 22.5759C73.9841 22.5759 73.6991 22.5114 73.4385 22.3872C73.178 22.2629 72.9485 22.082 72.7669 21.8577C70.1463 18.6188 70.9684 10.7236 70.9684 10.7236" stroke="white" stroke-width="0.751874" stroke-linecap="round" stroke-linejoin="round"/>
<path d="M77.5769 15.6748C72.8722 16.3439 71.1421 14.6138 71.1421 14.6138C71.1421 14.6138 73.4489 30.7614 77.5769 15.6748Z" fill="white"/>
<path d="M77.5769 15.6748C72.8722 16.3439 71.1421 14.6138 71.1421 14.6138M77.5769 15.6748C73.4489 30.7614 71.1421 14.6138 71.1421 14.6138M77.5769 15.6748L74.0256 15.1905L71.1421 14.6138" stroke="white" stroke-width="0.751874" stroke-linecap="round" stroke-linejoin="round"/>
<path d="M67.9099 15.6748C63.2052 16.3439 61.4751 14.6138 61.4751 14.6138C61.4751 14.6138 63.7819 30.7614 67.9099 15.6748Z" fill="white"/>
<path d="M67.9099 15.6748C63.2052 16.3439 61.4751 14.6138 61.4751 14.6138M67.9099 15.6748C63.7819 30.7614 61.4751 14.6138 61.4751 14.6138M67.9099 15.6748L64.3586 15.1905L61.4751 14.6138" stroke="white" stroke-width="0.751874" stroke-linecap="round" stroke-linejoin="round"/>
<path d="M74.2725 22.5771V31.3073" stroke="white" stroke-width="0.751874" stroke-linecap="round" stroke-linejoin="round"/>
</svg>
