<svg width="20" height="18" viewBox="0 0 20 18" fill="none" xmlns="http://www.w3.org/2000/svg">
<path d="M14.3875 0C12.6813 0 11.0726 0.784781 10 2.06002C8.92736 0.784781 7.31875 0 5.6125 0C2.58991 0 0.25 2.35411 0.25 5.39508C0.25 9.12239 3.56491 12.1145 8.58606 16.7245L10 18L11.4139 16.7245C16.435 12.1145 19.75 9.12234 19.75 5.39508C19.75 2.35411 17.4101 0 14.3875 0ZM10.6017 15.4339L10.4039 15.6155L10 15.9798L9.59612 15.6155L9.39859 15.4342C7.03525 13.2647 4.99417 11.391 3.64488 9.71569C2.33439 8.08852 1.75 6.756 1.75 5.39508C1.75 4.32328 2.14478 3.33581 2.86164 2.61464C3.57611 1.89586 4.55303 1.5 5.6125 1.5C6.83753 1.5 8.04859 2.07033 8.85203 3.02555L10 4.39036L11.1479 3.02555C11.9514 2.07033 13.1624 1.5 14.3875 1.5C15.447 1.5 16.4239 1.89586 17.1384 2.61459C17.8552 3.33581 18.25 4.32323 18.25 5.39508C18.25 6.756 17.6656 8.08847 16.3552 9.71559C15.006 11.3909 12.965 13.2645 10.6017 15.4339Z" fill="#373737"/>
</svg>
