<svg width="24" height="22" viewBox="0 0 24 22" fill="none" xmlns="http://www.w3.org/2000/svg">
<path d="M1.5 4.25003H1.6065C1.7702 4.89322 2.14354 5.46353 2.66754 5.87086C3.19153 6.27819 3.83631 6.49933 4.5 6.49933C5.16369 6.49933 5.80847 6.27819 6.33246 5.87086C6.85646 5.46353 7.2298 4.89322 7.3935 4.25003H22.5C22.6989 4.25003 22.8897 4.17101 23.0303 4.03036C23.171 3.88971 23.25 3.69894 23.25 3.50003C23.25 3.30112 23.171 3.11035 23.0303 2.9697C22.8897 2.82905 22.6989 2.75003 22.5 2.75003H7.3935C7.2298 2.10684 6.85646 1.53653 6.33246 1.1292C5.80847 0.721867 5.16369 0.500732 4.5 0.500732C3.83631 0.500732 3.19153 0.721867 2.66754 1.1292C2.14354 1.53653 1.7702 2.10684 1.6065 2.75003H1.5C1.30109 2.75003 1.11032 2.82905 0.96967 2.9697C0.829018 3.11035 0.75 3.30112 0.75 3.50003C0.75 3.69894 0.829018 3.88971 0.96967 4.03036C1.11032 4.17101 1.30109 4.25003 1.5 4.25003ZM4.5 2.00003C4.79667 2.00003 5.08668 2.088 5.33335 2.25283C5.58003 2.41765 5.77229 2.65192 5.88582 2.92601C5.99935 3.20009 6.02906 3.50169 5.97118 3.79267C5.9133 4.08364 5.77044 4.35091 5.56066 4.56069C5.35088 4.77047 5.08361 4.91333 4.79264 4.97121C4.50166 5.02909 4.20006 4.99938 3.92597 4.88585C3.65189 4.77232 3.41762 4.58006 3.2528 4.33339C3.08797 4.08671 3 3.7967 3 3.50003C3 3.10221 3.15804 2.72068 3.43934 2.43937C3.72064 2.15807 4.10218 2.00003 4.5 2.00003ZM22.5 10.25H22.3935C22.2298 9.60684 21.8565 9.03653 21.3325 8.6292C20.8085 8.22187 20.1637 8.00073 19.5 8.00073C18.8363 8.00073 18.1915 8.22187 17.6675 8.6292C17.1435 9.03653 16.7702 9.60684 16.6065 10.25H1.5C1.30109 10.25 1.11032 10.329 0.96967 10.4697C0.829018 10.6104 0.75 10.8011 0.75 11C0.75 11.1989 0.829018 11.3897 0.96967 11.5304C1.11032 11.671 1.30109 11.75 1.5 11.75H16.6065C16.7702 12.3932 17.1435 12.9635 17.6675 13.3709C18.1915 13.7782 18.8363 13.9993 19.5 13.9993C20.1637 13.9993 20.8085 13.7782 21.3325 13.3709C21.8565 12.9635 22.2298 12.3932 22.3935 11.75H22.5C22.6989 11.75 22.8897 11.671 23.0303 11.5304C23.171 11.3897 23.25 11.1989 23.25 11C23.25 10.8011 23.171 10.6104 23.0303 10.4697C22.8897 10.329 22.6989 10.25 22.5 10.25ZM19.5 12.5C19.2033 12.5 18.9133 12.4121 18.6666 12.2472C18.42 12.0824 18.2277 11.8481 18.1142 11.5741C18.0006 11.3 17.9709 10.9984 18.0288 10.7074C18.0867 10.4164 18.2296 10.1491 18.4393 9.93937C18.6491 9.72959 18.9164 9.58673 19.2074 9.52885C19.4983 9.47097 19.7999 9.50068 20.074 9.61421C20.3481 9.72774 20.5824 9.92 20.7472 10.1667C20.912 10.4133 21 10.7034 21 11C21 11.3979 20.842 11.7794 20.5607 12.0607C20.2794 12.342 19.8978 12.5 19.5 12.5ZM22.5 17.75H14.8935C14.7298 17.1068 14.3565 16.5365 13.8325 16.1292C13.3085 15.7219 12.6637 15.5007 12 15.5007C11.3363 15.5007 10.6915 15.7219 10.1675 16.1292C9.64354 16.5365 9.2702 17.1068 9.1065 17.75H1.5C1.30109 17.75 1.11032 17.829 0.96967 17.9697C0.829018 18.1104 0.75 18.3011 0.75 18.5C0.75 18.6989 0.829018 18.8897 0.96967 19.0304C1.11032 19.171 1.30109 19.25 1.5 19.25H9.1065C9.2702 19.8932 9.64354 20.4635 10.1675 20.8709C10.6915 21.2782 11.3363 21.4993 12 21.4993C12.6637 21.4993 13.3085 21.2782 13.8325 20.8709C14.3565 20.4635 14.7298 19.8932 14.8935 19.25H22.5C22.6989 19.25 22.8897 19.171 23.0303 19.0304C23.171 18.8897 23.25 18.6989 23.25 18.5C23.25 18.3011 23.171 18.1104 23.0303 17.9697C22.8897 17.829 22.6989 17.75 22.5 17.75ZM12 20C11.7033 20 11.4133 19.9121 11.1666 19.7472C10.92 19.5824 10.7277 19.3481 10.6142 19.0741C10.5006 18.8 10.4709 18.4984 10.5288 18.2074C10.5867 17.9164 10.7296 17.6492 10.9393 17.4394C11.1491 17.2296 11.4164 17.0867 11.7074 17.0289C11.9983 16.971 12.2999 17.0007 12.574 17.1142C12.8481 17.2277 13.0824 17.42 13.2472 17.6667C13.412 17.9133 13.5 18.2034 13.5 18.5C13.5 18.8979 13.342 19.2794 13.0607 19.5607C12.7794 19.842 12.3978 20 12 20Z" fill="#EEEEEE"/>
</svg>
