<svg width="11" height="11" viewBox="0 0 11 11" fill="none" xmlns="http://www.w3.org/2000/svg">
<g clip-path="url(#clip0_1051_2596)">
<path d="M5.5 10.3125C2.81875 10.3125 0.6875 8.18125 0.6875 5.5C0.6875 2.81875 2.81875 0.6875 5.5 0.6875C8.18125 0.6875 10.3125 2.81875 10.3125 5.5C10.3125 8.18125 8.18125 10.3125 5.5 10.3125ZM5.5 1.375C3.23125 1.375 1.375 3.23125 1.375 5.5C1.375 7.76875 3.23125 9.625 5.5 9.625C7.76875 9.625 9.625 7.76875 9.625 5.5C9.625 3.23125 7.76875 1.375 5.5 1.375Z" fill="#7C7C7C"/>
<path d="M3.78125 4.8125C4.16095 4.8125 4.46875 4.5047 4.46875 4.125C4.46875 3.7453 4.16095 3.4375 3.78125 3.4375C3.40155 3.4375 3.09375 3.7453 3.09375 4.125C3.09375 4.5047 3.40155 4.8125 3.78125 4.8125Z" fill="#7C7C7C"/>
<path d="M7.21875 4.8125C7.59845 4.8125 7.90625 4.5047 7.90625 4.125C7.90625 3.7453 7.59845 3.4375 7.21875 3.4375C6.83905 3.4375 6.53125 3.7453 6.53125 4.125C6.53125 4.5047 6.83905 4.8125 7.21875 4.8125Z" fill="#7C7C7C"/>
<path d="M5.50004 8.24994C4.67504 8.24994 3.85004 7.83744 3.30004 7.21869C3.16254 7.08119 3.23129 6.87494 3.36879 6.73744C3.50629 6.59994 3.71254 6.66869 3.85004 6.80619C4.26254 7.28744 4.88129 7.56244 5.50004 7.56244C6.11879 7.56244 6.73754 7.28744 7.15004 6.73744C7.28754 6.59994 7.49379 6.59994 7.63129 6.66869C7.76879 6.80619 7.83754 7.01244 7.70004 7.14994C7.15004 7.83744 6.32504 8.24994 5.50004 8.24994Z" fill="#7C7C7C"/>
</g>
<defs>
<clipPath id="clip0_1051_2596">
<rect width="11" height="11" fill="white"/>
</clipPath>
</defs>
</svg>
