<svg width="16" height="16" viewBox="0 0 16 16" fill="none" xmlns="http://www.w3.org/2000/svg">
<path d="M6.54013 12.0574C3.49792 12.0574 1.02289 9.5824 1.02289 6.54019C1.02289 3.49798 3.49792 1.02295 6.54013 1.02295C9.58234 1.02295 12.0574 3.49798 12.0574 6.54019C12.0574 9.5824 9.58234 12.0574 6.54013 12.0574ZM6.54013 2.1264C4.10647 2.1264 2.12634 4.10654 2.12634 6.54019C2.12634 8.97385 4.10647 10.954 6.54013 10.954C8.97378 10.954 10.9539 8.97385 10.9539 6.54019C10.9539 4.10654 8.97434 2.1264 6.54013 2.1264Z" fill="#7C7C7C"/>
<path d="M14.4254 14.977C14.3529 14.9771 14.2812 14.9628 14.2142 14.9351C14.1473 14.9073 14.0865 14.8666 14.0353 14.8153L9.79036 10.5704C9.73913 10.5191 9.6985 10.4583 9.67078 10.3914C9.64305 10.3245 9.62878 10.2527 9.62878 10.1803C9.62878 10.1079 9.64305 10.0361 9.67078 9.9692C9.6985 9.90227 9.73913 9.84146 9.79036 9.79023C9.84158 9.73901 9.90239 9.69838 9.96932 9.67065C10.0362 9.64293 10.108 9.62866 10.1804 9.62866C10.2529 9.62866 10.3246 9.64293 10.3915 9.67065C10.4585 9.69838 10.5193 9.73901 10.5705 9.79023L14.8155 14.0352C14.8929 14.1123 14.9456 14.2106 14.9671 14.3177C14.9885 14.4248 14.9776 14.5358 14.9358 14.6367C14.894 14.7376 14.8232 14.8239 14.7323 14.8844C14.6414 14.945 14.5346 14.9772 14.4254 14.977Z" fill="#7C7C7C"/>
</svg>
