<svg width="15" height="15" viewBox="0 0 15 15" fill="none" xmlns="http://www.w3.org/2000/svg">
<path fill-rule="evenodd" clip-rule="evenodd" d="M3.4375 4.6875V12.5C3.4375 12.7486 3.53627 12.9871 3.71209 13.1629C3.8879 13.3387 4.12636 13.4375 4.375 13.4375H11.25C11.4986 13.4375 11.7371 13.3387 11.9129 13.1629C12.0887 12.9871 12.1875 12.7486 12.1875 12.5V4.6875H3.4375Z" stroke="#AFAFAF"/>
<path d="M5.3125 6.50625V11.6188M7.8125 6.50625V11.6188M10.3125 6.50625V11.6188M5.625 2.70813V2.0275C5.625 1.59812 6.01687 1.25 6.5 1.25H9.125C9.60813 1.25 10 1.59812 10 2.0275V2.70875" stroke="#AFAFAF" stroke-linecap="round"/>
<path d="M12.5 2.8125H3.125C2.60723 2.8125 2.1875 3.23223 2.1875 3.75C2.1875 4.26777 2.60723 4.6875 3.125 4.6875H12.5C13.0178 4.6875 13.4375 4.26777 13.4375 3.75C13.4375 3.23223 13.0178 2.8125 12.5 2.8125Z" stroke="#AFAFAF"/>
</svg>
