<svg width="22" height="22" viewBox="0 0 22 22" fill="none" xmlns="http://www.w3.org/2000/svg">
<path d="M12.9342 14.8881H12.311V9.91431C12.311 9.69482 12.2238 9.48432 12.0686 9.32912C11.9134 9.17391 11.7029 9.08672 11.4834 9.08672H9.06686C8.84737 9.08672 8.63687 9.17391 8.48167 9.32912C8.32647 9.48432 8.23927 9.69482 8.23927 9.91431C8.23927 10.1338 8.32647 10.3443 8.48167 10.4995C8.63687 10.6547 8.84737 10.7419 9.06686 10.7419H10.6558V14.8881H9.06686C8.84737 14.8881 8.63687 14.9753 8.48167 15.1305C8.32647 15.2857 8.23927 15.4962 8.23927 15.7157C8.23927 15.9352 8.32647 16.1457 8.48167 16.3009C8.63687 16.4561 8.84737 16.5433 9.06686 16.5433H12.9342C13.1537 16.5433 13.3642 16.4561 13.5194 16.3009C13.6746 16.1457 13.7618 15.9352 13.7618 15.7157C13.7618 15.4962 13.6746 15.2857 13.5194 15.1305C13.3642 14.9753 13.1537 14.8881 12.9342 14.8881ZM11.0001 7.28672C11.2456 7.28672 11.4856 7.21392 11.6898 7.07751C11.8939 6.94111 12.053 6.74723 12.147 6.5204C12.2409 6.29357 12.2655 6.04397 12.2176 5.80316C12.1697 5.56236 12.0515 5.34116 11.8779 5.16755C11.7043 4.99394 11.4831 4.87571 11.2423 4.82782C11.0015 4.77992 10.7519 4.8045 10.525 4.89846C10.2982 4.99241 10.1043 5.15153 9.96793 5.35567C9.83153 5.55981 9.75872 5.79982 9.75872 6.04534C9.75872 6.37458 9.88951 6.69033 10.1223 6.92313C10.3551 7.15593 10.6709 7.28672 11.0001 7.28672ZM11.0001 0.655273C8.25742 0.65834 5.62796 1.74922 3.68859 3.68859C1.74922 5.62796 0.65834 8.25742 0.655273 11.0001C0.659869 13.7423 1.75124 16.3709 3.69028 18.3099C5.62932 20.249 8.25789 21.3403 11.0001 21.3449C13.7437 21.3449 16.375 20.255 18.315 18.315C20.255 16.375 21.3449 13.7437 21.3449 11.0001C21.3449 8.25648 20.255 5.62524 18.315 3.6852C16.375 1.74517 13.7437 0.655273 11.0001 0.655273ZM17.0663 17.212C15.6308 18.6105 13.7558 19.4694 11.7592 19.6429C9.76258 19.8164 7.76745 19.2938 6.11227 18.1638C4.45709 17.0338 3.24379 15.366 2.67823 13.4434C2.11267 11.5207 2.22967 9.46163 3.00938 7.61541C3.78909 5.76919 5.18349 4.24956 6.95602 3.31435C8.72854 2.37913 10.77 2.08592 12.7341 2.48446C14.6982 2.88301 16.4639 3.94876 17.7317 5.5009C18.9995 7.05304 19.6913 8.99599 19.6898 11.0001C19.6926 12.1587 19.4617 13.306 19.011 14.3733C18.5602 15.4407 17.8988 16.4061 17.0663 17.212Z" fill="#EEEEEE"/>
</svg>
