<svg width="22" height="22" viewBox="0 0 22 22" fill="none" xmlns="http://www.w3.org/2000/svg">
<path d="M12.934 14.8881H12.3109V9.91431C12.3109 9.69482 12.2237 9.48432 12.0685 9.32912C11.9133 9.17391 11.7028 9.08672 11.4833 9.08672H9.06674C8.84725 9.08672 8.63675 9.17391 8.48155 9.32912C8.32634 9.48432 8.23915 9.69482 8.23915 9.91431C8.23915 10.1338 8.32634 10.3443 8.48155 10.4995C8.63675 10.6547 8.84725 10.7419 9.06674 10.7419H10.6557V14.8881H9.06674C8.84725 14.8881 8.63675 14.9753 8.48155 15.1305C8.32634 15.2857 8.23915 15.4962 8.23915 15.7157C8.23915 15.9352 8.32634 16.1457 8.48155 16.3009C8.63675 16.4561 8.84725 16.5433 9.06674 16.5433H12.934C13.1535 16.5433 13.364 16.4561 13.5192 16.3009C13.6744 16.1457 13.7616 15.9352 13.7616 15.7157C13.7616 15.4962 13.6744 15.2857 13.5192 15.1305C13.364 14.9753 13.1535 14.8881 12.934 14.8881ZM11 7.28672C11.2455 7.28672 11.4855 7.21392 11.6897 7.07751C11.8938 6.94111 12.0529 6.74723 12.1469 6.5204C12.2408 6.29357 12.2654 6.04397 12.2175 5.80316C12.1696 5.56236 12.0514 5.34116 11.8778 5.16755C11.7042 4.99394 11.483 4.87571 11.2422 4.82782C11.0014 4.77992 10.7518 4.8045 10.5249 4.89846C10.2981 4.99241 10.1042 5.15153 9.96781 5.35567C9.83141 5.55981 9.7586 5.79982 9.7586 6.04534C9.7586 6.37458 9.88939 6.69033 10.1222 6.92313C10.355 7.15593 10.6707 7.28672 11 7.28672ZM11 0.655273C8.2573 0.65834 5.62784 1.74922 3.68847 3.68859C1.7491 5.62796 0.658218 8.25742 0.655151 11.0001C0.659747 13.7423 1.75112 16.3709 3.69016 18.3099C5.62919 20.249 8.25777 21.3403 11 21.3449C13.7436 21.3449 16.3748 20.255 18.3149 18.315C20.2549 16.375 21.3448 13.7437 21.3448 11.0001C21.3448 8.25648 20.2549 5.62524 18.3149 3.6852C16.3748 1.74517 13.7436 0.655273 11 0.655273ZM17.0662 17.212C15.6307 18.6105 13.7556 19.4694 11.759 19.6429C9.76246 19.8164 7.76733 19.2938 6.11215 18.1638C4.45697 17.0338 3.24367 15.366 2.67811 13.4434C2.11255 11.5207 2.22955 9.46163 3.00926 7.61541C3.78897 5.76919 5.18337 4.24956 6.9559 3.31435C8.72842 2.37913 10.7699 2.08592 12.734 2.48446C14.6981 2.88301 16.4638 3.94876 17.7316 5.5009C18.9994 7.05304 19.6912 8.99599 19.6896 11.0001C19.6925 12.1587 19.4616 13.306 19.0108 14.3733C18.5601 15.4407 17.8987 16.4061 17.0662 17.212Z" fill="#373737"/>
</svg>
