<svg width="9" height="9" viewBox="0 0 9 9" fill="none" xmlns="http://www.w3.org/2000/svg">
<path d="M5.09656 4.5L8.73578 0.860781C8.90058 0.696123 8.90058 0.428882 8.73578 0.264225C8.57099 0.0994289 8.30402 0.0994289 8.13923 0.264225L4.5 3.90344L0.860781 0.264222C0.695985 0.0994261 0.429017 0.0994261 0.264225 0.264222C0.0994289 0.42888 0.0994289 0.69612 0.264225 0.860778L3.90345 4.5L0.264222 8.13922C0.0994261 8.30388 0.0994261 8.57112 0.264222 8.73578C0.34662 8.81818 0.454561 8.85938 0.562501 8.85938C0.670442 8.85938 0.778383 8.81818 0.860781 8.73578L4.5 5.09656L8.13922 8.73578C8.22162 8.81818 8.32956 8.85938 8.4375 8.85938C8.54544 8.85938 8.65338 8.81818 8.73578 8.73578C8.90058 8.57112 8.90058 8.30388 8.73578 8.13923L5.09656 4.5Z" fill="#EEEEEE"/>
</svg>
