<svg width="11" height="11" viewBox="0 0 11 11" fill="none" xmlns="http://www.w3.org/2000/svg">
<g clip-path="url(#clip0_1291_2657)">
<path fill-rule="evenodd" clip-rule="evenodd" d="M5.50181 0.45752C2.72251 0.45752 0.456543 2.72028 0.456543 5.49912C0.456543 8.27796 2.72297 10.5435 5.50181 10.5435C8.28065 10.5435 10.5425 8.27796 10.5425 5.49912C10.5425 2.72028 8.28065 0.45752 5.50181 0.45752ZM5.50181 1.37417C6.04372 1.37327 6.58047 1.47935 7.08129 1.68634C7.58211 1.89333 8.03714 2.19715 8.42029 2.58038C8.80343 2.96361 9.10715 3.41871 9.31403 3.91957C9.52091 4.42044 9.62687 4.95722 9.62584 5.49912C9.62693 6.04118 9.52103 6.57811 9.3142 7.07916C9.10738 7.58021 8.80371 8.03551 8.42059 8.41897C8.03747 8.80243 7.58244 9.10651 7.08157 9.31378C6.58071 9.52104 6.04387 9.62742 5.50181 9.62682C4.95953 9.62748 4.42243 9.52118 3.92129 9.31399C3.42014 9.1068 2.96478 8.80279 2.58129 8.41938C2.19779 8.03597 1.89368 7.58068 1.68638 7.07958C1.47908 6.57848 1.37266 6.04141 1.3732 5.49912C1.3732 3.21573 3.21842 1.37417 5.50181 1.37417ZM5.49448 2.28441C5.4339 2.28501 5.37404 2.29761 5.31836 2.32148C5.26267 2.34535 5.21228 2.38003 5.17008 2.4235C5.12789 2.46698 5.09473 2.51839 5.07253 2.57476C5.05033 2.63112 5.03952 2.69134 5.04073 2.75191V5.49912C5.04099 5.55943 5.05314 5.6191 5.0765 5.67471C5.09986 5.73031 5.13396 5.78076 5.17686 5.82316L7.01017 7.65739C7.05258 7.70103 7.10325 7.73578 7.15923 7.75963C7.21521 7.78348 7.27538 7.79594 7.33623 7.79629C7.39708 7.79664 7.45739 7.78487 7.51364 7.76167C7.56989 7.73846 7.62096 7.70429 7.66386 7.66114C7.70677 7.61799 7.74065 7.56673 7.76354 7.51035C7.78642 7.45397 7.79785 7.39359 7.79716 7.33275C7.79647 7.2719 7.78366 7.2118 7.7595 7.15596C7.73533 7.10011 7.70029 7.04964 7.65641 7.00748L5.95831 5.30937V2.75191C5.95954 2.69049 5.94841 2.62944 5.92559 2.57241C5.90276 2.51537 5.8687 2.46351 5.82543 2.4199C5.78216 2.37629 5.73057 2.34182 5.67371 2.31855C5.61686 2.29527 5.55591 2.28366 5.49448 2.28441Z" fill="#7C7C7C"/>
</g>
<defs>
<clipPath id="clip0_1291_2657">
<rect width="11" height="11" fill="white"/>
</clipPath>
</defs>
</svg>
