<svg width="11" height="11" viewBox="0 0 11 11" fill="none" xmlns="http://www.w3.org/2000/svg">
<g clip-path="url(#clip0_1291_2068)">
<path fill-rule="evenodd" clip-rule="evenodd" d="M5.50132 0.45752C2.72203 0.45752 0.456055 2.72028 0.456055 5.49912C0.456055 8.27796 2.72248 10.5435 5.50132 10.5435C8.28016 10.5435 10.542 8.27796 10.542 5.49912C10.542 2.72028 8.28016 0.45752 5.50132 0.45752ZM5.50132 1.37417C6.04323 1.37327 6.57999 1.47935 7.08081 1.68634C7.58162 1.89333 8.03665 2.19715 8.4198 2.58038C8.80294 2.96361 9.10666 3.41871 9.31354 3.91957C9.52042 4.42044 9.62638 4.95722 9.62536 5.49912C9.62644 6.04118 9.52054 6.57811 9.31371 7.07916C9.10689 7.58021 8.80322 8.03551 8.4201 8.41897C8.03698 8.80243 7.58195 9.10651 7.08108 9.31378C6.58022 9.52104 6.04338 9.62742 5.50132 9.62682C4.95904 9.62748 4.42195 9.52118 3.9208 9.31399C3.41965 9.1068 2.9643 8.80279 2.5808 8.41938C2.1973 8.03597 1.8932 7.58068 1.68589 7.07958C1.47859 6.57848 1.37217 6.04141 1.37271 5.49912C1.37271 3.21573 3.21794 1.37417 5.50132 1.37417ZM5.49399 2.28441C5.43341 2.28501 5.37355 2.29761 5.31787 2.32148C5.26219 2.34535 5.21179 2.38003 5.16959 2.4235C5.1274 2.46698 5.09424 2.51839 5.07204 2.57476C5.04984 2.63112 5.03903 2.69134 5.04025 2.75191V5.49912C5.0405 5.55943 5.05265 5.6191 5.07601 5.67471C5.09937 5.73031 5.13348 5.78076 5.17637 5.82316L7.00968 7.65739C7.05209 7.70103 7.10276 7.73578 7.15874 7.75963C7.21472 7.78348 7.27489 7.79594 7.33574 7.79629C7.39659 7.79664 7.4569 7.78487 7.51315 7.76167C7.5694 7.73846 7.62047 7.70429 7.66337 7.66114C7.70628 7.61799 7.74016 7.56673 7.76305 7.51035C7.78594 7.45397 7.79737 7.39359 7.79667 7.33275C7.79598 7.2719 7.78317 7.2118 7.75901 7.15596C7.73484 7.10011 7.6998 7.04964 7.65592 7.00748L5.95782 5.30937V2.75191C5.95905 2.69049 5.94792 2.62944 5.9251 2.57241C5.90227 2.51537 5.86821 2.46351 5.82494 2.4199C5.78167 2.37629 5.73008 2.34182 5.67323 2.31855C5.61637 2.29527 5.55542 2.28366 5.49399 2.28441Z" fill="#AFAFAF"/>
</g>
<defs>
<clipPath id="clip0_1291_2068">
<rect width="11" height="11" fill="white"/>
</clipPath>
</defs>
</svg>
