<svg width="14" height="14" viewBox="0 0 14 14" fill="none" xmlns="http://www.w3.org/2000/svg">
<g clip-path="url(#clip0_1222_676)">
<path d="M2.04167 14.0001H10.7917C11.334 13.9985 11.8535 13.7819 12.2363 13.3977C12.6191 13.0135 12.8338 12.4932 12.8333 11.9508V7.55425C12.8333 7.39954 12.7719 7.25116 12.6625 7.14177C12.5531 7.03237 12.4047 6.97091 12.25 6.97091C12.0953 6.97091 11.9469 7.03237 11.8375 7.14177C11.7281 7.25116 11.6667 7.39954 11.6667 7.55425V11.9508C11.6674 12.1838 11.5757 12.4076 11.4117 12.5731C11.2477 12.7386 11.0247 12.8322 10.7917 12.8334H2.04167C1.80867 12.8322 1.58568 12.7386 1.42163 12.5731C1.25759 12.4076 1.16589 12.1838 1.16667 11.9508V3.216C1.16589 2.983 1.25759 2.75921 1.42163 2.59374C1.58568 2.42827 1.80867 2.33465 2.04167 2.33341H6.41667C6.57138 2.33341 6.71975 2.27196 6.82915 2.16256C6.93854 2.05316 7 1.90479 7 1.75008C7 1.59537 6.93854 1.447 6.82915 1.3376C6.71975 1.22821 6.57138 1.16675 6.41667 1.16675H2.04167C1.49934 1.16829 0.979788 1.38493 0.597018 1.76912C0.214247 2.15332 -0.00046497 2.67367 7.56063e-07 3.216V11.9508C-0.00046497 12.4932 0.214247 13.0135 0.597018 13.3977C0.979788 13.7819 1.49934 13.9985 2.04167 14.0001Z" fill="#AFAFAF"/>
<path d="M5.51561 6.15076L5.05536 8.25893C5.03453 8.35455 5.03809 8.45388 5.06571 8.54777C5.09334 8.64165 5.14414 8.72708 5.21345 8.79618C5.2837 8.86354 5.36916 8.91298 5.46258 8.94029C5.556 8.96761 5.65463 8.972 5.75011 8.9531L7.85361 8.49168C7.96283 8.4677 8.06286 8.41282 8.14178 8.3336L13.4583 3.0171C13.6208 2.85459 13.7497 2.66166 13.8377 2.44932C13.9257 2.23698 13.9709 2.00939 13.9709 1.77955C13.9709 1.54972 13.9257 1.32213 13.8377 1.10979C13.7497 0.897451 13.6208 0.704519 13.4583 0.542013C13.1251 0.223593 12.6819 0.0458984 12.221 0.0458984C11.7601 0.0458984 11.317 0.223593 10.9838 0.542013L5.67545 5.86376C5.59577 5.94214 5.5403 6.04176 5.51561 6.15076ZM11.8086 1.36743C11.9196 1.26111 12.0673 1.20176 12.221 1.20176C12.3747 1.20176 12.5225 1.26111 12.6334 1.36743C12.7414 1.47746 12.8018 1.62543 12.8018 1.77955C12.8018 1.93367 12.7414 2.08165 12.6334 2.19168L12.221 2.6041L11.3962 1.77926L11.8086 1.36743ZM6.61695 6.56726L10.5684 2.60585L11.3851 3.4266L7.43186 7.38918L6.38478 7.61901L6.61695 6.56726Z" fill="#AFAFAF"/>
</g>
<defs>
<clipPath id="clip0_1222_676">
<rect width="14" height="14" fill="white"/>
</clipPath>
</defs>
</svg>
