<svg width="18" height="15" viewBox="0 0 18 15" fill="none" xmlns="http://www.w3.org/2000/svg">
<path d="M17.8337 7.78564C17.8337 8.18116 17.5398 8.50803 17.1585 8.55976L17.0525 8.56689L1.42749 8.56689C0.996021 8.56689 0.646242 8.21712 0.646242 7.78564C0.646242 7.39013 0.940153 7.06326 1.32148 7.01153L1.42749 7.00439L17.0525 7.00439C17.484 7.00439 17.8337 7.35417 17.8337 7.78564Z" fill="white"/>
<path d="M8.28039 13.5079C8.58615 13.8124 8.58721 14.307 8.28277 14.6128C8.00601 14.8907 7.57204 14.9169 7.26571 14.6906L7.17792 14.6152L0.875837 8.34016C0.597049 8.06256 0.571687 7.62703 0.799765 7.3207L0.875792 7.23297L7.17787 0.956928C7.4836 0.652464 7.97826 0.653488 8.28273 0.959216C8.55951 1.23715 8.58383 1.67123 8.35626 1.9766L8.28044 2.06407L2.53457 7.78685L8.28039 13.5079Z" fill="white"/>
</svg>
