<svg width="26" height="26" viewBox="0 0 26 26" fill="none" xmlns="http://www.w3.org/2000/svg">
<circle cx="13" cy="13" r="13" fill="#373737"/>
<circle cx="13" cy="13" r="11" fill="#5D4A4A"/>
<path d="M12.9993 7C12.6457 7 12.3066 7.14048 12.0565 7.39052C11.8065 7.64057 11.666 7.97971 11.666 8.33333V8.56067C10.1127 9.11 8.99935 10.592 8.99935 12.3333V15.6667H8.33268C8.15587 15.6667 7.9863 15.7369 7.86128 15.8619C7.73625 15.987 7.66602 16.1565 7.66602 16.3333C7.66602 16.5101 7.73625 16.6797 7.86128 16.8047C7.9863 16.9298 8.15587 17 8.33268 17H17.666C17.8428 17 18.0124 16.9298 18.1374 16.8047C18.2624 16.6797 18.3327 16.5101 18.3327 16.3333C18.3327 16.1565 18.2624 15.987 18.1374 15.8619C18.0124 15.7369 17.8428 15.6667 17.666 15.6667H16.9993V12.3333C16.9994 11.506 16.7431 10.6989 16.2655 10.0233C15.7879 9.34762 15.1127 8.83664 14.3327 8.56067V8.33333C14.3327 7.97971 14.1922 7.64057 13.9422 7.39052C13.6921 7.14048 13.353 7 12.9993 7ZM12.9993 19C12.6457 19 12.3066 18.8595 12.0565 18.6095C11.8065 18.3594 11.666 18.0203 11.666 17.6667H14.3327C14.3327 18.0203 14.1922 18.3594 13.9422 18.6095C13.6921 18.8595 13.353 19 12.9993 19Z" fill="#D72323"/>
</svg>
