<svg width="26" height="26" viewBox="0 0 26 26" fill="none" xmlns="http://www.w3.org/2000/svg">
<circle cx="13" cy="13" r="13" fill="white"/>
<circle cx="13" cy="13" r="11" fill="#FFE9E9"/>
<path d="M12.9998 7C12.6462 7 12.3071 7.14048 12.057 7.39052C11.807 7.64057 11.6665 7.97971 11.6665 8.33333V8.56067C10.1132 9.11 8.99984 10.592 8.99984 12.3333V15.6667H8.33317C8.15636 15.6667 7.98679 15.7369 7.86177 15.8619C7.73674 15.987 7.6665 16.1565 7.6665 16.3333C7.6665 16.5101 7.73674 16.6797 7.86177 16.8047C7.98679 16.9298 8.15636 17 8.33317 17H17.6665C17.8433 17 18.0129 16.9298 18.1379 16.8047C18.2629 16.6797 18.3332 16.5101 18.3332 16.3333C18.3332 16.1565 18.2629 15.987 18.1379 15.8619C18.0129 15.7369 17.8433 15.6667 17.6665 15.6667H16.9998V12.3333C16.9999 11.506 16.7436 10.6989 16.266 10.0233C15.7884 9.34762 15.1132 8.83664 14.3332 8.56067V8.33333C14.3332 7.97971 14.1927 7.64057 13.9426 7.39052C13.6926 7.14048 13.3535 7 12.9998 7ZM12.9998 19C12.6462 19 12.3071 18.8595 12.057 18.6095C11.807 18.3594 11.6665 18.0203 11.6665 17.6667H14.3332C14.3332 18.0203 14.1927 18.3594 13.9426 18.6095C13.6926 18.8595 13.3535 19 12.9998 19Z" fill="#D72323"/>
</svg>
