<svg width="21" height="17" viewBox="0 0 21 17" fill="none" xmlns="http://www.w3.org/2000/svg">
<path d="M20.675 2.37496L15.675 0.524956C15.775 0.574956 15.525 0.424956 15.325 0.524956L10.5 2.29996L5.70002 0.524956C5.80002 0.574956 5.55002 0.424956 5.35002 0.524956L0.350024 2.37496C0.150024 2.44996 0.0250244 2.62496 0.0250244 2.84996V16C0.0250244 16.875 1.12502 16.3 0.700024 16.475L5.50002 14.7L10.3 16.475C10.525 16.55 10.775 16.425 10.675 16.475L15.5 14.7L20.325 16.475C20.65 16.6 21 16.375 21 16V2.84996C21 2.64996 20.875 2.44996 20.675 2.37496ZM5.00002 13.825L1.00002 15.25V3.17496L5.00002 1.72496V13.825ZM10 15.25L6.00002 13.8V1.72496L10 3.17496V15.25ZM15 13.825L11 15.25V3.17496L15 1.72496V13.825ZM20 15.25L16 13.8V1.72496L20 3.17496V15.25Z" fill="#7C7C7C"/>
</svg>
